solid BODY-001
  facet normal 0.000000 0.000000 -1.000000
    outer loop
      vertex 0.0000 0.0000 0.0000
      vertex 60.0000 40.0000 0.0000
      vertex 60.0000 0.0000 0.0000
    endloop
  endfacet
  facet normal 0.000000 0.000000 -1.000000
    outer loop
      vertex 0.0000 0.0000 0.0000
      vertex 0.0000 40.0000 0.0000
      vertex 60.0000 40.0000 0.0000
    endloop
  endfacet
  facet normal 0.000000 0.000000 1.000000
    outer loop
      vertex 0.0000 0.0000 30.0000
      vertex 60.0000 0.0000 30.0000
      vertex 60.0000 40.0000 30.0000
    endloop
  endfacet
  facet normal 0.000000 0.000000 1.000000
    outer loop
      vertex 0.0000 0.0000 30.0000
      vertex 60.0000 40.0000 30.0000
      vertex 0.0000 40.0000 30.0000
    endloop
  endfacet
  facet normal 0.000000 -1.000000 0.000000
    outer loop
      vertex 0.0000 0.0000 0.0000
      vertex 60.0000 0.0000 0.0000
      vertex 60.0000 0.0000 30.0000
    endloop
  endfacet
  facet normal 0.000000 -1.000000 0.000000
    outer loop
      vertex 0.0000 0.0000 0.0000
      vertex 60.0000 0.0000 30.0000
      vertex 0.0000 0.0000 30.0000
    endloop
  endfacet
  facet normal 0.000000 1.000000 0.000000
    outer loop
      vertex 60.0000 40.0000 0.0000
      vertex 0.0000 40.0000 0.0000
      vertex 0.0000 40.0000 30.0000
    endloop
  endfacet
  facet normal 0.000000 1.000000 0.000000
    outer loop
      vertex 60.0000 40.0000 0.0000
      vertex 0.0000 40.0000 30.0000
      vertex 60.0000 40.0000 30.0000
    endloop
  endfacet
  facet normal -1.000000 0.000000 0.000000
    outer loop
      vertex 0.0000 0.0000 0.0000
      vertex 0.0000 0.0000 30.0000
      vertex 0.0000 40.0000 30.0000
    endloop
  endfacet
  facet normal -1.000000 0.000000 0.000000
    outer loop
      vertex 0.0000 0.0000 0.0000
      vertex 0.0000 40.0000 30.0000
      vertex 0.0000 40.0000 0.0000
    endloop
  endfacet
  facet normal 1.000000 0.000000 0.000000
    outer loop
      vertex 60.0000 0.0000 0.0000
      vertex 60.0000 40.0000 0.0000
      vertex 60.0000 40.0000 30.0000
    endloop
  endfacet
  facet normal 1.000000 0.000000 0.000000
    outer loop
      vertex 60.0000 0.0000 0.0000
      vertex 60.0000 40.0000 30.0000
      vertex 60.0000 0.0000 30.0000
    endloop
  endfacet
endsolid BODY-001