solid PCB-001
  facet normal 0.000000 0.000000 -1.000000
    outer loop
      vertex 5.0000 2.5000 4.0000
      vertex 55.0000 37.5000 4.0000
      vertex 55.0000 2.5000 4.0000
    endloop
  endfacet
  facet normal 0.000000 0.000000 -1.000000
    outer loop
      vertex 5.0000 2.5000 4.0000
      vertex 5.0000 37.5000 4.0000
      vertex 55.0000 37.5000 4.0000
    endloop
  endfacet
  facet normal 0.000000 0.000000 1.000000
    outer loop
      vertex 5.0000 2.5000 6.0000
      vertex 55.0000 2.5000 6.0000
      vertex 55.0000 37.5000 6.0000
    endloop
  endfacet
  facet normal 0.000000 0.000000 1.000000
    outer loop
      vertex 5.0000 2.5000 6.0000
      vertex 55.0000 37.5000 6.0000
      vertex 5.0000 37.5000 6.0000
    endloop
  endfacet
  facet normal 0.000000 -1.000000 0.000000
    outer loop
      vertex 5.0000 2.5000 4.0000
      vertex 55.0000 2.5000 4.0000
      vertex 55.0000 2.5000 6.0000
    endloop
  endfacet
  facet normal 0.000000 -1.000000 0.000000
    outer loop
      vertex 5.0000 2.5000 4.0000
      vertex 55.0000 2.5000 6.0000
      vertex 5.0000 2.5000 6.0000
    endloop
  endfacet
  facet normal 0.000000 1.000000 0.000000
    outer loop
      vertex 55.0000 37.5000 4.0000
      vertex 5.0000 37.5000 4.0000
      vertex 5.0000 37.5000 6.0000
    endloop
  endfacet
  facet normal 0.000000 1.000000 0.000000
    outer loop
      vertex 55.0000 37.5000 4.0000
      vertex 5.0000 37.5000 6.0000
      vertex 55.0000 37.5000 6.0000
    endloop
  endfacet
  facet normal -1.000000 0.000000 0.000000
    outer loop
      vertex 5.0000 2.5000 4.0000
      vertex 5.0000 2.5000 6.0000
      vertex 5.0000 37.5000 6.0000
    endloop
  endfacet
  facet normal -1.000000 0.000000 0.000000
    outer loop
      vertex 5.0000 2.5000 4.0000
      vertex 5.0000 37.5000 6.0000
      vertex 5.0000 37.5000 4.0000
    endloop
  endfacet
  facet normal 1.000000 0.000000 0.000000
    outer loop
      vertex 55.0000 2.5000 4.0000
      vertex 55.0000 37.5000 4.0000
      vertex 55.0000 37.5000 6.0000
    endloop
  endfacet
  facet normal 1.000000 0.000000 0.000000
    outer loop
      vertex 55.0000 2.5000 4.0000
      vertex 55.0000 37.5000 6.0000
      vertex 55.0000 2.5000 6.0000
    endloop
  endfacet
endsolid PCB-001